<svg width="95" height="151" viewBox="0 0 95 151" fill="none" xmlns="http://www.w3.org/2000/svg">
<g clip-path="url(#clip0)">
<path d="M25.92 21.6192C16.73 48.2486 8.93998 76.3957 2.69998 105.584C1.25998 112.307 -0.120022 119.296 0.00997831 126.478C0.139978 133.66 2.08998 141.196 5.75998 144.302C7.83998 146.066 10.22 146.26 12.52 146.366C33.91 147.284 55.37 142.466 75.94 132.107C84.25 127.925 93.9 119.578 94.34 104.349C94.64 93.8839 90.28 85.1133 87.59 75.7604C83.21 60.531 83.03 41.8957 77.37 28.0427C72.25 15.4957 65.61 2.40162 56.89 1.06045C51.74 0.266335 46.1 -0.79249 40.41 1.55457C34.16 4.11339 28.91 11.5957 25.92 21.6192Z" fill="#F7BC28"/>
<path d="M32.5002 24.4957C28.7302 43.6252 27.1802 64.4134 28.0002 84.8487C28.4002 94.6957 29.4102 104.825 32.4002 112.819C36.2302 123.072 43.1002 128.384 49.5702 126.972C56.0402 125.56 61.9602 117.849 65.5402 107.243C70.7702 91.7663 71.0002 71.9487 70.3002 53.4546C69.6702 37.0075 67.5902 18.1781 60.0702 10.6252C54.1602 4.6958 47.0202 8.04874 40.6102 11.5252L32.5002 24.4957Z" fill="#FFC9A0"/>
<path d="M23.4102 64.731C32.3102 64.8016 42.4902 57.6193 44.7302 53.8604C51.4802 42.4781 52.1602 18.9192 51.9602 3.26636L30.8102 16.6428L23.5602 40.6781L23.4102 64.731Z" fill="#F7BC28"/>
<path d="M47.1699 3.24878C47.1699 3.24878 56.1799 48.5135 75.1099 55.0076L72.1299 35.5252L64.6299 10.1488L47.1699 3.24878Z" fill="#F7BC28"/>
<path d="M58.1199 52.2368C57.6199 52.0956 57.1299 52.5544 56.9099 53.3662C56.8599 53.5603 56.7999 53.7544 56.7599 53.9662C56.6199 54.6368 56.6299 55.5368 56.9899 55.8721C57.1299 56.0132 57.2999 56.0132 57.4599 56.0132C59.1399 56.0662 60.8099 56.4721 62.4499 57.1603C63.2799 57.5132 64.0999 57.9368 64.9099 58.4485C65.1099 58.5721 65.8599 59.3132 66.0399 59.1897C66.3799 58.9779 66.2099 57.9015 66.0699 57.5132C65.8799 57.0015 65.5699 56.6662 65.2799 56.3485L65.1999 56.2603C63.5499 54.4779 61.7099 53.2603 59.7999 52.7309L58.1199 52.2368Z" fill="#F7BC28"/>
<path d="M42.5602 8.87817C35.9902 8.89582 29.2402 27.4959 26.9202 36.8311C24.3302 47.2606 19.7502 58.4311 16.6002 68.3488C13.5202 78.0547 10.4602 87.8488 8.12018 98.2076C6.96018 103.325 5.99018 108.584 5.31018 113.966C4.70018 118.731 4.82018 119.878 4.46018 124.802C4.05018 130.396 4.18018 136.943 7.36018 137.984C10.4802 139.008 16.2202 138.761 19.3402 139.484C19.9202 139.625 20.1802 138.037 19.5902 137.896C15.0702 136.819 7.59018 140.243 5.80018 130.008C4.98018 125.313 5.52018 120.143 6.09018 115.466C6.70018 110.419 12.8202 91.1841 13.8502 86.3664C18.0802 66.6547 21.2402 63.4076 26.3402 44.4194C29.1902 33.8135 32.2702 21.6194 37.6602 14.2429C38.5002 13.0782 39.4302 12.1076 40.4502 11.5605C41.3202 11.1017 42.6902 10.5017 43.4402 10.1488C44.3902 9.67229 44.1702 8.87817 42.5602 8.87817Z" fill="white"/>
<path d="M33.05 135.672C32.9 135.672 32.76 135.655 32.61 135.637C29.71 135.143 25.08 133.784 22.47 131.896C20.12 130.202 17.54 127.784 16.21 123.814C13.92 117.019 14.3 106.343 17.37 100.449C17.77 99.6724 17.92 97.7842 17.51 98.5606C14.86 103.661 13.45 109.255 13.92 115.961C14.24 120.461 14.13 124.872 15.5 127.184C17.18 130.025 20.61 132.408 22.76 133.872C25.37 135.637 28.87 136.272 31.64 136.714C32.23 136.819 35.06 136.714 34.69 135.69H33.05V135.672Z" fill="white"/>
<path d="M23.2603 88.9959C21.8903 95.5782 20.3503 106.414 21.2203 111.796C21.7303 114.919 25.1003 119.649 27.7903 123.602C28.2503 124.272 29.2503 124.766 28.7903 124.078C26.2303 120.319 23.3903 116.137 22.5003 110.208C21.4903 103.519 22.5703 94.7312 23.8903 88.4312C24.0903 87.4429 23.4703 88.0076 23.2603 88.9959Z" fill="white"/>
<path d="M25.9904 57.8663C29.3204 57.0016 32.4604 54.8663 35.5204 52.4663C38.3504 50.2605 42.8904 46.5369 45.1604 42.7252C47.4104 38.9134 47.9004 32.384 48.9104 27.2487C50.0104 21.7075 49.8304 18.6193 49.8504 12.7604C49.8504 11.7016 49.1904 8.86041 49.1904 9.91923C49.1904 26.4193 47.1704 35.8781 42.5904 43.2722C40.4204 46.7663 37.7004 48.9899 35.0404 51.0546C32.0504 53.384 28.9804 55.4487 25.7304 56.2781C25.1504 56.4369 25.4004 58.0252 25.9904 57.8663Z" fill="white"/>
<path d="M32.2003 40.1133C32.9903 34.9251 36.6403 29.7015 38.7403 25.7486C41.0303 21.4604 41.5303 20.0133 44.3103 16.8016C44.8103 16.2192 45.2903 13.6075 44.7903 14.1898C41.8103 17.631 37.9703 22.8015 35.5803 27.4604C33.4503 31.6074 32.1003 36.0015 31.9103 38.7015C31.8403 39.7427 31.5303 42.4957 31.9003 42.7427L32.2003 40.1133Z" fill="white"/>
<path d="M39.8203 35.0664C42.7403 28.537 46.0503 20.4547 45.5503 15.1252C45.4503 14.1017 44.7403 13.6429 44.6503 14.6841C44.0003 22.89 40.9503 31.0782 38.1303 37.4135C37.7603 38.2253 38.5303 37.9605 38.9003 37.1311L39.8203 35.0664Z" fill="white"/>
<path d="M77.22 55.2195C66.72 50.2783 58.31 34.5371 56.12 15.7606C55.97 16.1135 55.82 16.4488 55.67 16.8017C62.34 15.7253 68.2 23.1548 72.02 32.2253C76.41 42.6548 78.21 55.59 80.6 67.6606C81.84 73.9077 83.37 79.8018 85.04 85.7312C86.68 91.5547 88.37 97.9253 87.93 104.596C87.2 115.749 80.86 122.102 75.45 125.508C67.13 130.749 58.1 133.078 49.29 133.219C48.69 133.237 47.31 135.69 47.9 135.69C56.33 135.549 63.65 133.802 71.69 129.302C77.21 126.214 86.63 118.519 88.81 108.319C90.1 102.302 90.24 97.0077 88.89 91.2371C87.37 84.7077 83.89 78.5136 82.45 71.9136C79.67 59.1371 76.44 40.1489 74.81 35.543C69.92 21.6371 63.23 13.9429 55.68 15.1606C55.37 15.2135 55.17 15.637 55.23 16.2017C58.4 43.0959 66.18 51.7253 76.98 56.79C77.56 57.0724 77.8 55.5018 77.22 55.2195Z" fill="white"/>
<path d="M47.75 127.872C54.31 128.843 64.89 127.766 71.16 123.672C76.24 120.355 77.37 115.449 79.61 106.484C80.86 101.472 81.73 101.949 79.55 90.6721C79.36 89.6663 78.39 89.331 78.7 90.231C81.69 99.0545 77.81 111.037 73.93 116.684C69.56 123.055 63.93 125.878 58.36 126.602C54.83 127.06 51.28 126.76 47.76 126.231C47.15 126.143 47.15 127.784 47.75 127.872Z" fill="white"/>
<path d="M83.2801 109.784C85.9701 103.59 84.9801 99.3724 84.0101 91.9606C82.8701 83.2783 79.9401 75.7254 77.2501 68.3489C76.9301 67.4665 76.1201 68.2783 76.4501 69.1783C79.0101 76.1842 81.7601 83.2606 82.9801 91.4136C84.0701 98.7018 84.3501 104.667 82.0001 112.167C81.7101 113.084 81.5501 114.672 81.9101 113.843L83.2801 109.784Z" fill="white"/>
<path d="M64.5004 114.919C68.6404 112.802 72.3504 103.555 74.0304 96.6723C76.0804 88.2194 73.7004 83.2252 72.5504 74.4547C72.4104 73.4311 71.5204 73.8547 71.6504 74.8958C72.7404 83.1723 73.0504 92.1547 71.2004 100.166C69.6704 106.784 66.3804 111.231 62.6904 114.461C62.3404 114.761 61.6304 116.084 61.6304 116.084L64.5004 114.919Z" fill="white"/>
<path d="M62.7401 29.4899C64.3801 30.7782 66.2401 33.1605 67.6501 35.737C69.1101 38.4193 72.4401 45.4605 73.6801 48.4605C76.0801 54.3193 76.0501 56.5429 77.5001 63.3017C77.7101 64.2723 78.6101 63.8488 78.4001 62.8605C76.8501 55.6076 74.7601 48.7605 72.1401 42.5488C70.8701 39.5311 70.9501 38.2076 69.4501 35.5252C68.0101 32.9488 66.1101 30.2311 64.1001 29.1899C63.5201 28.8899 62.1601 29.1899 62.7401 29.4899Z" fill="white"/>
<path d="M29.6502 63.7605C25.6802 64.9076 24.2502 64.8193 20.6102 68.0664C18.0002 70.3958 15.2502 73.784 14.8302 78.9017C14.2902 85.484 18.0202 90.9546 21.7202 92.2252C25.4202 93.4958 29.2402 92.0664 33.0002 92.5958" fill="#FFC9A0"/>
<path d="M69.25 53.2605C72.61 52.6605 76.03 53.4546 79.19 55.5546C82.35 57.6546 85.03 63.3017 84.46 69.1605C83.84 75.4781 80.04 78.9899 76.62 81.1252C73.41 83.1193 70.12 84.7252 66.79 85.9252" fill="#FFC9A0"/>
<path d="M40.8701 124.343L43.6001 149.49H51.9601L54.9801 116.931L40.8701 124.343Z" fill="#FFC9A0"/>
<path d="M32.6899 102.372C32.5699 102.566 32.3899 102.566 32.2699 102.372C31.3199 100.89 30.2099 99.7426 29.2199 98.3309C28.1599 96.8132 27.1999 94.8721 26.9599 92.5073C26.5099 88.0603 29.0899 85.0426 31.1799 87.9015C31.7699 88.6956 32.2299 89.7544 32.6599 90.8309C32.6999 90.9368 32.8099 90.8838 32.7999 90.7426C32.7199 89.5073 32.9799 88.2015 33.4399 87.2485C34.2299 85.5721 35.9099 84.1426 37.1799 84.5662C38.9699 85.1485 38.9299 88.8015 38.4399 91.2015C37.8499 94.0956 36.1599 96.6544 34.9199 98.6838L32.6899 102.372Z" fill="#F1673C"/>
<path d="M65.5398 99.6722C65.4098 99.8487 65.2298 99.7958 65.1298 99.584C64.2798 97.9252 63.2598 96.5664 62.3698 94.9605C61.4098 93.2487 60.5898 91.1134 60.4998 88.7134C60.3398 84.1958 63.0998 81.7428 64.9998 84.9899C65.5298 85.9075 65.9198 87.0369 66.2798 88.2016C66.3198 88.3252 66.4198 88.2722 66.4198 88.1487C66.4198 86.8958 66.7698 85.6605 67.2898 84.7958C68.1898 83.2958 69.9398 82.2193 71.1798 82.8899C72.9198 83.8428 72.6398 87.4428 71.9998 89.7369C71.2198 92.4899 69.3798 94.6781 68.0198 96.4605L65.5398 99.6722Z" fill="#F1673C"/>
<path d="M53.84 108.249C57.03 105.884 59.53 101.331 60.74 95.6136C60.86 95.0312 60.6 94.3607 60.29 94.2018C59.93 94.0254 59.61 94.4136 59.49 94.996C58.46 99.8842 56.23 104.014 53.5 106.025C53.18 106.272 52.94 106.784 53.05 107.437C53.12 107.984 53.51 108.496 53.84 108.249Z" fill="#010101"/>
<path d="M54.3603 67.1136C54.9203 71.3136 57.1803 74.8783 59.7303 73.8548C62.0903 72.9019 63.1203 68.4725 63.8003 64.8372C63.4803 65.0666 63.1603 65.296 62.8503 65.5254C64.3903 66.9195 65.9303 68.296 67.4703 69.6901C68.2103 70.3607 68.8703 68.3842 68.1303 67.7136C66.5903 66.3195 65.0503 64.9431 63.5103 63.5489C63.1203 63.196 62.6903 63.496 62.5603 64.2372C62.0603 66.9019 61.3803 70.4489 59.7203 71.4901C57.7603 72.7254 56.0503 69.6548 55.6303 66.5136C55.4203 65.0666 54.1603 65.6842 54.3603 67.1136Z" fill="#010101"/>
<path d="M61.8901 69.8309C61.9501 69.9015 62.0001 69.9721 62.0501 70.0427C62.1401 70.1662 62.0701 70.078 62.0201 70.0074C62.0601 70.0603 62.0901 70.1133 62.1301 70.1662C62.2601 70.3604 62.4001 70.5368 62.5301 70.7309C62.8401 71.1721 63.1401 71.6309 63.4501 72.0721C64.0301 72.9192 64.6001 73.7839 65.2101 74.5604C65.4901 74.9133 65.9501 74.6662 66.1001 74.1545C66.2801 73.5545 66.1601 72.9545 65.8701 72.5839C65.8101 72.5133 65.7601 72.4427 65.7101 72.3721C65.6201 72.2486 65.6901 72.3368 65.7401 72.4074C65.7001 72.3545 65.6701 72.3015 65.6301 72.2486C65.5001 72.0545 65.3601 71.878 65.2301 71.6839C64.9201 71.2427 64.6201 70.7839 64.3101 70.3427C63.7301 69.4956 63.1601 68.6309 62.5501 67.8545C62.2701 67.5015 61.8101 67.7486 61.6601 68.2604C61.4801 68.8427 61.6001 69.4427 61.8901 69.8309Z" fill="#010101"/>
<path d="M42.97 70.0607C42.55 73.2019 40.84 76.2724 38.88 75.0371C37.22 73.996 36.54 70.4489 36.04 67.7842C35.9 67.0607 35.47 66.743 35.09 67.096C33.55 68.4901 32.01 69.8666 30.47 71.2607C29.72 71.9313 30.38 73.9077 31.13 73.2372C32.67 71.843 34.21 70.4666 35.75 69.0724C35.43 68.843 35.11 68.6136 34.8 68.3842C35.48 72.0195 36.51 76.4313 38.87 77.4019C41.42 78.443 43.68 74.8607 44.24 70.6607C44.42 69.2489 43.16 68.6313 42.97 70.0607Z" fill="#010101"/>
<path d="M36.0301 71.4016C35.4201 72.1781 34.8501 73.0428 34.2701 73.8899C33.9601 74.3311 33.6601 74.7899 33.3501 75.2311C33.2201 75.4252 33.0901 75.6016 32.9501 75.7958C32.9201 75.8487 32.8901 75.884 32.8501 75.9369C32.8101 75.9899 32.9901 75.7605 32.8601 75.9193C32.8101 75.9899 32.7501 76.0605 32.7001 76.1311C32.4301 76.484 32.2601 77.1369 32.4701 77.7016C32.6501 78.1781 33.0701 78.4958 33.3601 78.1075C33.9701 77.3311 34.5401 76.4664 35.1201 75.6193C35.4301 75.1781 35.7301 74.7193 36.0401 74.2781C36.1701 74.084 36.3001 73.9075 36.4401 73.7134C36.4701 73.6605 36.5001 73.6252 36.5401 73.5722C36.5801 73.5193 36.4001 73.7487 36.5301 73.5899C36.5801 73.5193 36.6401 73.4487 36.6901 73.3781C36.9601 73.0252 37.1301 72.3722 36.9201 71.8075C36.7501 71.3311 36.3301 71.0311 36.0301 71.4016Z" fill="#010101"/>
<path d="M73.5802 61.5017C74.7602 61.184 76.0202 61.5723 77.1702 62.084C78.3102 62.5958 79.4802 63.2487 80.1502 65.1017C80.5002 66.0723 80.6302 67.1487 80.4002 68.2605C80.1902 69.284 79.8002 70.2546 79.3802 71.0487C78.6402 72.4252 77.6802 73.3252 76.7102 74.0487C75.5502 74.9135 74.3402 75.5664 73.1902 76.4664C72.6402 76.8899 73.1202 78.3017 73.6602 77.8783C75.9402 76.0958 78.6402 75.2487 80.3102 71.684C81.2402 69.7076 81.8202 67.2899 81.1402 64.8193C80.5102 62.5605 79.2902 61.4487 77.9802 60.7605C76.5002 59.984 74.8902 59.5076 73.3502 59.9135C72.7402 60.0723 72.9902 61.6605 73.5802 61.5017Z" fill="#010101"/>
<path d="M74.4002 70.925C74.7602 70.8015 75.1202 70.5015 75.4402 70.2192C75.8902 69.8486 76.3202 69.3897 76.7102 68.8427C77.0602 68.3486 77.3902 67.678 77.4202 66.8662C77.4502 65.7897 76.8902 65.1545 76.3902 64.7839C75.6802 64.2721 74.8902 64.1839 74.1302 64.0603C73.8902 64.025 73.6602 64.4662 73.6702 64.8721C73.6802 65.3486 73.8702 65.6486 74.1302 65.6839C74.2602 65.7015 74.3902 65.7192 74.5202 65.7368C74.6002 65.7545 74.6702 65.7545 74.7502 65.7721C74.7802 65.7721 74.8102 65.7897 74.8302 65.7897C74.8502 65.7897 74.9902 65.825 74.9402 65.8074C74.8702 65.7898 75.0102 65.825 75.0102 65.825C75.0502 65.8427 75.1002 65.8427 75.1402 65.8603C75.2102 65.878 75.2902 65.8956 75.3602 65.9309C75.5202 65.9839 75.6702 66.0545 75.8302 66.125C75.9002 66.1603 75.9602 66.1956 76.0302 66.2486C76.0602 66.2662 76.0802 66.2839 76.1102 66.3015C76.0102 66.2309 76.1302 66.3192 76.1502 66.3368C76.2102 66.3897 76.2702 66.4427 76.3202 66.4956C76.3502 66.5309 76.3702 66.5486 76.4002 66.5839C76.5102 66.7074 76.3602 66.5133 76.4102 66.6015C76.4402 66.6545 76.4702 66.7074 76.4902 66.7427C76.5502 66.8309 76.4302 66.5662 76.4702 66.6898C76.4802 66.7074 76.4802 66.725 76.4902 66.7427C76.5502 66.9015 76.4602 66.5486 76.4902 66.725C76.5302 66.9545 76.4802 66.5486 76.4902 66.725C76.4902 66.7427 76.4802 66.8133 76.4902 66.8133C76.4802 66.7956 76.5202 66.6015 76.5002 66.6898C76.4902 66.7427 76.4802 66.7956 76.4702 66.8486C76.4502 66.9898 76.5302 66.6545 76.4902 66.778C76.4802 66.7956 76.4702 66.8309 76.4702 66.8662C76.4502 66.9368 76.4302 66.9897 76.4102 67.0427C76.3602 67.1662 76.4902 66.8839 76.4302 67.0074C76.4202 67.025 76.4002 67.0603 76.3902 67.0956C76.3602 67.1486 76.3302 67.2015 76.3002 67.2545C76.2302 67.378 76.1502 67.5015 76.0702 67.625C76.0502 67.6603 76.0102 67.7309 76.1002 67.5897C76.0802 67.625 76.0502 67.6603 76.0302 67.678C75.9902 67.7309 75.9502 67.7839 75.9102 67.8368C75.8202 67.9427 75.7202 68.0486 75.6302 68.1545C75.4502 68.3486 75.2602 68.525 75.0702 68.6839C74.9702 68.7721 74.8702 68.8603 74.7602 68.9309C74.7502 68.9486 74.7302 68.9662 74.7102 68.9662C74.8502 68.8956 74.7402 68.9486 74.7002 68.9662C74.6602 69.0015 74.6102 69.0368 74.5702 69.0545C74.4402 69.1427 74.3002 69.2309 74.1702 69.2839C73.9302 69.3721 73.7702 69.9015 73.8502 70.2897C73.9102 70.8192 74.1502 71.0133 74.4002 70.925Z" fill="#010101"/>
<path d="M25.8701 86.1724C24.2501 86.5254 22.6201 86.2959 21.0501 85.4489C19.9301 84.8489 17.7501 83.6489 18.0501 80.9312C18.1901 79.6607 18.7101 78.5842 19.2101 77.7018C19.7201 76.8018 20.2701 75.9724 20.8701 75.2665C22.1001 73.7842 23.4701 72.7607 24.9201 72.1959C25.5001 71.9665 25.2601 70.396 24.6701 70.6077C22.1401 71.596 19.5901 74.0489 17.9701 77.6665C17.1901 79.4136 16.6901 81.8136 17.5201 83.7901C18.2801 85.6077 19.7601 86.4901 20.9401 87.1077C22.5301 87.9371 24.2101 88.1665 25.8501 87.8136C26.4601 87.6901 26.4701 86.0489 25.8701 86.1724Z" fill="#010101"/>
<path d="M23.9503 75.6369C23.3203 75.7605 22.7203 76.0605 22.1503 76.5369C21.6303 76.9781 21.0903 77.5957 20.7303 78.4075C20.3203 79.3075 20.2503 80.4193 20.5403 81.4605C20.7903 82.3781 21.2803 83.0487 21.8303 83.3487C22.5503 83.7546 23.3203 83.5428 24.0503 83.3487C24.3003 83.2781 24.4403 82.731 24.3703 82.3428C24.3003 81.8663 24.0503 81.7075 23.8003 81.7781C23.2003 81.9369 22.5403 82.1134 21.9603 81.7075C22.0103 81.7428 21.8603 81.6193 21.8503 81.6016C21.7903 81.5487 21.7403 81.4781 21.6803 81.4075C21.7103 81.4428 21.7003 81.4252 21.6603 81.3722C21.6403 81.3369 21.6103 81.284 21.5903 81.2487C21.5803 81.231 21.4703 81.0193 21.5003 81.0899C21.4603 81.0016 21.4303 80.8958 21.3903 80.8075C21.3703 80.7546 21.3603 80.7016 21.3503 80.6487C21.3603 80.7193 21.3603 80.7016 21.3403 80.6134C21.3203 80.5075 21.3003 80.4016 21.2903 80.2957C21.3003 80.4369 21.2903 80.1369 21.2903 80.1016C21.2903 79.9957 21.2903 79.9957 21.2903 80.0663C21.3003 80.0134 21.3003 79.9605 21.3103 79.9075C21.3203 79.8193 21.3303 79.784 21.3703 79.6781C21.4303 79.484 21.5103 79.3428 21.6103 79.1663C21.8203 78.8134 22.0603 78.531 22.3103 78.284C22.8103 77.7722 23.4003 77.4193 23.9603 77.3134C24.2103 77.2605 24.4203 76.9781 24.4203 76.5016C24.4103 76.0605 24.2003 75.6016 23.9503 75.6369Z" fill="#010101"/>
<path d="M49.5897 78.4253C50.3997 82.0959 51.3197 85.7665 51.9797 89.4371C52.1397 90.3371 51.7497 91.2371 51.2197 91.2547C50.2797 91.2724 49.1697 91.29 48.2497 91.29C47.7797 91.29 47.4097 90.5841 47.4497 89.7371L48.0497 78.7783C48.1297 77.2959 49.2797 77.0312 49.5897 78.4253Z" fill="#E48929"/>
<path d="M54.2499 124.784C54.2499 124.784 47.6999 129.425 40.8599 124.343L41.3799 129.107L53.1399 136.713L54.2499 124.784Z" fill="#EFB086"/>
<path d="M49.8097 12.1956C53.1297 12.0367 56.1197 9.90145 59.4097 10.8897C61.6897 11.5779 64.3697 13.6603 66.2297 15.9191C70.0797 20.5956 72.9997 25.5191 76.0097 31.8897C76.4197 32.772 80.2997 43.0426 77.0597 31.8191C74.8497 24.1956 69.6697 18.6897 65.6797 13.872C63.7797 11.5779 61.9697 9.86616 59.6697 9.17792C56.2897 8.15439 49.1097 7.32498 49.1397 8.45439C49.1897 9.90145 49.1897 11.2073 49.1897 11.2073L49.8097 12.1956Z" fill="white"/>
</g>
<defs>
<clipPath id="clip0">
<rect width="95" height="150" fill="white" transform="translate(0 0.125)"/>
</clipPath>
</defs>
</svg>
