<svg width="117" height="146" viewBox="0 0 117 146" fill="none" xmlns="http://www.w3.org/2000/svg">
<g clip-path="url(#clip0)">
<path d="M109.938 3.70535C117.85 8.4176 116.366 21.8173 116.769 39.1129C117 48.7744 117.043 52.9865 116.957 61.8581C116.884 68.5974 117.49 80.4437 115.443 86.1038C113.353 91.869 107.675 93.2642 104.086 94.6068C99.5608 96.2916 94.9776 97.4498 90.3656 97.8975C87.6417 98.1607 84.9178 98.4239 82.2082 98.8451C80.6084 99.1085 77.9854 98.8188 76.5585 100.451C74.8291 102.452 73.6328 111.587 71.6151 116.615C69.8135 121.09 67.4643 125.302 64.726 127.777C63.9621 128.461 63.1262 129.04 62.2758 128.803C59.6095 128.119 59.8113 119.853 59.7969 116.272C59.7825 113.272 59.869 110.086 60.2005 107.059C60.5319 104.031 59.1628 101.293 57.4765 101.557L50.9765 102.583C38.5098 102.952 35.5985 102.11 24.3712 98.0028C19.8025 96.3442 17.1794 90.2631 16.9344 81.523C16.6173 70.0979 16.8911 58.5148 16.8623 47.0895C16.8479 37.7441 16.0408 27.1875 18.7936 18.7634C21.6905 9.89181 27.9311 7.20663 33.5231 5.67976C47.5896 1.96789 61.757 0.309383 75.9821 0.125106C75.9821 0.125106 103.25 -0.269774 109.938 3.70535Z" fill="#F7BC28"/>
<path d="M39.0286 44.22C58.125 45.1152 77.308 44.378 96.3612 41.8772C99.114 41.5085 99.1428 33.6109 96.3612 33.9796C77.308 36.4804 58.125 37.2176 39.0286 36.3226C36.247 36.1908 36.247 44.0884 39.0286 44.22Z" fill="white"/>
<path d="M35.7571 66.4388C48.1086 66.4388 60.46 65.3857 72.8115 65.1225C82.3669 64.9382 91.8791 65.7807 101.406 64.2801C104.158 63.8589 104.187 55.9612 101.406 56.3825C91.8791 57.8568 82.3669 57.0143 72.8115 57.2249C60.46 57.4881 48.1086 58.5412 35.7571 58.5412C32.9755 58.5412 32.9611 66.4388 35.7571 66.4388Z" fill="white"/>
<path d="M16.214 136.964C16.3581 135.385 15.796 133.832 14.9313 133.516C9.62748 131.594 4.66961 127.013 1.55653 118.51C-3.77607 103.926 5.77937 89.0258 12.582 84.1294C19.5721 79.1011 27.9024 79.6804 34.3736 86.7093C34.7916 87.1568 35.1807 87.6306 35.5698 88.1571C40.225 94.3435 44.1164 106.532 42.8769 116.72C42.4157 120.485 41.2772 123.96 39.2018 126.776C35.3392 132.041 30.0931 133.989 25.092 134.49C24.1264 134.595 23.2184 135.332 22.5842 136.648C21.5321 138.807 19.7738 142.203 18.1596 144.546C17.0931 146.099 15.5366 144.362 15.7672 141.914L16.214 136.964Z" fill="#39B55D"/>
<path d="M12.7691 104.742C19.0673 104.742 25.3656 104.742 31.6638 104.742C33.9842 104.742 33.9842 98.1606 31.6638 98.1606C25.3656 98.1606 19.0673 98.1606 12.7691 98.1606C10.4487 98.1606 10.4487 104.742 12.7691 104.742Z" fill="white"/>
<path d="M11.8467 118.747C18.3756 118.747 24.9044 118.747 31.4332 118.747C33.7536 118.747 33.7536 112.166 31.4332 112.166C24.9044 112.166 18.3756 112.166 11.8467 112.166C9.52636 112.166 9.52636 118.747 11.8467 118.747Z" fill="white"/>
</g>
<defs>
<clipPath id="clip0">
<rect width="117" height="145" fill="white" transform="translate(0 0.125)"/>
</clipPath>
</defs>
</svg>
