<svg width="66" height="146" viewBox="0 0 66 146" fill="none" xmlns="http://www.w3.org/2000/svg">
<g clip-path="url(#clip0)">
<path d="M56.7665 145.125H9.23355C4.13276 145.125 0 137.589 0 128.288V25.7667C0 16.4652 4.13276 8.92896 9.23355 8.92896H56.7665C61.8672 8.92896 66 16.4652 66 25.7667V128.288C66 137.589 61.8672 145.125 56.7665 145.125Z" fill="#F7BC28"/>
<path d="M55.5254 53.3546H10.4746C8.32754 53.3546 6.57764 50.1635 6.57764 46.2483V26.4683C6.57764 22.5531 8.32754 19.3621 10.4746 19.3621H55.5254C57.6724 19.3621 59.4223 22.5531 59.4223 26.4683V46.2483C59.4223 50.1635 57.6724 53.3546 55.5254 53.3546Z" fill="#E48929"/>
<path d="M55.5254 92.575H10.4747C8.6627 92.575 7.19824 89.9044 7.19824 86.6002V66.8204C7.19824 63.5162 8.6627 60.8457 10.4747 60.8457H55.5254C57.3374 60.8457 58.8019 63.5162 58.8019 66.8204V86.6002C58.8019 89.9044 57.3374 92.575 55.5254 92.575Z" fill="#E48929"/>
<path d="M55.5254 134.058H10.4746C8.32754 134.058 6.57764 130.867 6.57764 126.952V107.172C6.57764 103.257 8.32754 100.066 10.4746 100.066H55.5254C57.6724 100.066 59.4223 103.257 59.4223 107.172V126.952C59.4223 130.867 57.6724 134.058 55.5254 134.058Z" fill="#E48929"/>
<path d="M33.3476 82.7301C35.1709 82.7301 36.6489 80.0349 36.6489 76.7102C36.6489 73.3854 35.1709 70.6902 33.3476 70.6902C31.5244 70.6902 30.0464 73.3854 30.0464 76.7102C30.0464 80.0349 31.5244 82.7301 33.3476 82.7301Z" fill="#F7BC28"/>
<path d="M33.3476 123.082C35.1709 123.082 36.6489 120.387 36.6489 117.062C36.6489 113.737 35.1709 111.042 33.3476 111.042C31.5244 111.042 30.0464 113.737 30.0464 117.062C30.0464 120.387 31.5244 123.082 33.3476 123.082Z" fill="#F7BC28"/>
<path d="M10.2635 10.7619C11.9017 27.2829 12.9442 44.4377 14.6817 60.8455H47.4335C44.7528 32.1034 43.3628 21.7383 41.8238 3.29353C41.6501 1.30195 40.6448 -0.1012 39.5527 0.147747L12.0134 6.39404C10.8468 6.66561 10.0525 8.65719 10.2635 10.7619Z" fill="#FBFAF7"/>
<path d="M18.5415 24.816C24.7344 25.2008 30.915 24.7029 37.0707 23.3223C38.0511 23.0959 38.0635 20.267 37.0707 20.4934C30.9274 21.8739 24.7344 22.3718 18.5415 21.987C17.5487 21.9417 17.5487 24.7707 18.5415 24.816Z" fill="#194429"/>
<path d="M19.7827 36.1319C25.9757 36.5165 32.1562 36.0186 38.3119 34.6382C39.2923 34.4118 39.3047 31.5829 38.3119 31.8093C32.1686 33.1897 25.9757 33.6876 19.7827 33.303C18.7899 33.2576 18.7899 36.0866 19.7827 36.1319Z" fill="#194429"/>
<path d="M21.0234 47.4478C27.2164 47.8326 33.3969 47.3347 39.5526 45.9541C40.533 45.7279 40.5455 42.899 39.5526 43.1252C33.4093 44.5057 27.2164 45.0036 21.0234 44.6188C20.0306 44.5737 20.0306 47.4027 21.0234 47.4478Z" fill="#194429"/>
</g>
<defs>
<clipPath id="clip0">
<rect width="66" height="145" fill="white" transform="translate(0 0.125)"/>
</clipPath>
</defs>
</svg>
